<svg xmlns="http://www.w3.org/2000/svg" class="icon icon-contact-phone" width="20.306" height="20.383" viewBox="0 0 20.306 20.383">
  <path id="Path_78113" data-name="Path 78113" d="M5.026,13.549a21.624,21.624,0,0,0,7.193,5.634,11.194,11.194,0,0,0,4.025,1.191c.1,0,.19.008.287.008a3.333,3.333,0,0,0,2.585-1.111.092.092,0,0,0,.017-.021,10.882,10.882,0,0,1,.815-.845c.2-.19.4-.389.6-.591a2.039,2.039,0,0,0-.008-3.037L18,12.24a2.055,2.055,0,0,0-1.487-.684,2.124,2.124,0,0,0-1.5.68l-1.512,1.512c-.139-.08-.283-.152-.418-.22a5.222,5.222,0,0,1-.465-.253A16,16,0,0,1,8.79,9.794,9.215,9.215,0,0,1,7.5,7.733c.4-.359.769-.735,1.128-1.1.127-.131.258-.262.389-.393a2.165,2.165,0,0,0,.7-1.52,2.148,2.148,0,0,0-.7-1.52L7.755,1.939c-.148-.148-.287-.291-.431-.439-.279-.287-.57-.583-.857-.849A2.106,2.106,0,0,0,4.98,0a2.168,2.168,0,0,0-1.5.655L1.9,2.234A3.246,3.246,0,0,0,.93,4.312a7.817,7.817,0,0,0,.587,3.379A19.657,19.657,0,0,0,5.026,13.549ZM1.96,4.4a2.234,2.234,0,0,1,.672-1.436L4.2,1.394a1.137,1.137,0,0,1,.777-.359,1.079,1.079,0,0,1,.76.367c.283.262.549.536.836.828.144.148.291.3.439.448L8.274,3.936a1.147,1.147,0,0,1,.4.79,1.147,1.147,0,0,1-.4.79c-.131.131-.262.266-.393.4-.393.4-.76.773-1.166,1.132l-.021.021A.826.826,0,0,0,6.484,8c0,.013.008.021.013.034a9.94,9.94,0,0,0,1.482,2.412,16.889,16.889,0,0,0,4.071,3.708,6.045,6.045,0,0,0,.558.3,5.223,5.223,0,0,1,.465.253l.046.025a.883.883,0,0,0,.41.106.9.9,0,0,0,.629-.287l1.58-1.58a1.118,1.118,0,0,1,.773-.376,1.061,1.061,0,0,1,.748.376L19.8,15.521a1.019,1.019,0,0,1-.013,1.592c-.177.19-.363.372-.562.562a12.162,12.162,0,0,0-.883.917,2.319,2.319,0,0,1-1.812.769c-.072,0-.148,0-.22-.008a10.17,10.17,0,0,1-3.641-1.09A20.543,20.543,0,0,1,5.829,12.9,18.815,18.815,0,0,1,2.492,7.345,6.812,6.812,0,0,1,1.96,4.4Z" transform="translate(-0.912 0)" fill="currentColor"/>
</svg>
