<svg id="Group_37852" class="icon icon-contact-location" data-name="Group 37852" xmlns="http://www.w3.org/2000/svg" width="14.242" height="20.255" viewBox="0 0 14.242 20.255">
  <path id="Path_78115" data-name="Path 78115" d="M82.627,19.991a.593.593,0,0,0,.988,0c1.4-2.106,3.473-4.708,4.914-7.354a11.789,11.789,0,0,0,1.713-5.516A7.121,7.121,0,1,0,76,7.121a11.789,11.789,0,0,0,1.713,5.516C79.153,15.281,81.226,17.888,82.627,19.991Zm.494-18.8a5.941,5.941,0,0,1,5.934,5.934,10.679,10.679,0,0,1-1.568,4.948,74.641,74.641,0,0,1-4.366,6.539,74.641,74.641,0,0,1-4.366-6.539,10.679,10.679,0,0,1-1.568-4.948,5.941,5.941,0,0,1,5.934-5.934Z" transform="translate(-76)" fill="currentColor"/>
  <path id="Path_78116" data-name="Path 78116" d="M169.56,97.121A3.56,3.56,0,1,0,166,93.56,3.564,3.564,0,0,0,169.56,97.121Zm0-5.934a2.374,2.374,0,1,1-2.374,2.374A2.376,2.376,0,0,1,169.56,91.187Z" transform="translate(-162.44 -86.44)" fill="currentColor"/>
</svg>
