<svg id="Group_37887" class="icon icon-accordion icon-fat" data-name="Group 37887" xmlns="http://www.w3.org/2000/svg" xmlns:xlink="http://www.w3.org/1999/xlink" width="24.203" height="32.094" viewBox="0 0 24.203 32.094">
  <defs>
    <clipPath id="clip-path">
      <rect id="Rectangle_16851" data-name="Rectangle 16851" width="24.203" height="32.094" fill="currentColor"/>
    </clipPath>
  </defs>
  <g id="Group_37878" data-name="Group 37878" clip-path="url(#clip-path)">
    <path id="Path_78173" data-name="Path 78173" d="M21.831,12.86A12.08,12.08,0,0,1,3.56,28.561a12.01,12.01,0,0,1-1.187-15.7L11.679.214a.524.524,0,0,1,.844,0l6.723,9.118a.722.722,0,0,0,.061.1ZM19.6,17.466a.68.68,0,0,0-.68-.68H16.2a.68.68,0,0,0,0,1.361h.681v4.76a.68.68,0,1,0,1.36,0v-4.76h.68a.68.68,0,0,0,.68-.681m-5.494,6.083a.68.68,0,0,0,.417-.867l-1.9-5.44a.68.68,0,0,0-1.284,0l-1.9,5.44a.68.68,0,1,0,1.283.45l.079-.224h2.368l.078.224a.681.681,0,0,0,.867.417M8.18,17.466a.68.68,0,0,0-.68-.68H4.779a.68.68,0,0,0-.68.68v5.441a.68.68,0,0,0,1.361,0v-2.04H7.5a.68.68,0,1,0,0-1.36H5.46v-1.36H7.5a.68.68,0,0,0,.68-.681" transform="translate(0 0)" fill="currentColor"/>
  </g>
</svg>
