<svg xmlns="http://www.w3.org/2000/svg" class="icon icon-contact-service" width="94.984" height="94.984" viewBox="0 0 94.984 94.984">
  <path id="avatar" d="M94.984,90.8A8.335,8.335,0,0,0,89.9,83.121L66.242,73.054v-5.9a22.073,22.073,0,0,0,4.62-10.913H75.7a8.358,8.358,0,0,0,8.348-8.348V35.925a8.36,8.36,0,0,0-7.187-8.266C76.259,9.553,66.136,0,47.492,0S18.726,9.553,18.124,27.659a8.36,8.36,0,0,0-7.187,8.266V47.893a8.358,8.358,0,0,0,8.348,8.348h4.837a22.068,22.068,0,0,0,4.62,10.913v5.9L5.081,83.121A8.336,8.336,0,0,0,0,90.8v1.4a2.783,2.783,0,0,0,2.783,2.783H92.2A2.782,2.782,0,0,0,94.984,92.2ZM60.68,75.006c0,.067.158,6.821-3.831,10.975-2.191,2.281-5.339,3.436-9.356,3.436s-7.143-1.148-9.332-3.412c-4.037-4.176-3.857-10.941-3.855-11,0-.038,0-.075,0-.112V72.138a25.307,25.307,0,0,0,26.369,0v2.755C60.677,74.931,60.678,74.968,60.68,75.006ZM65.5,51.969,60.2,55.5a10.171,10.171,0,0,1-5.66,1.714H49.835a2.783,2.783,0,1,0,0,5.565h4.707a15.716,15.716,0,0,0,8.748-2.649l1.065-.71c-2.511,6.479-8.933,10.86-16.863,10.86-10.264,0-18-7.337-18-17.068V30.652c1.1-5.1,2.686-8.342,4.6-9.381s4.681.041,7.362,1.083a17.293,17.293,0,0,0,6.039,1.578A16.764,16.764,0,0,0,53.5,22.337c2.684-1.067,5.22-2.074,7.1-1.094,1.369.714,3.32,2.936,4.9,9.445ZM78.482,35.925V47.893A2.786,2.786,0,0,1,75.7,50.676H71.061V33.142H75.7A2.786,2.786,0,0,1,78.482,35.925ZM28.651,12.382C32.5,7.859,38.843,5.565,47.492,5.565S62.48,7.859,66.334,12.382c3.034,3.562,4.7,8.669,4.954,15.194h-.854C68.753,21.608,66.421,18,63.173,16.307c-4.139-2.158-8.346-.487-11.727.857a13.973,13.973,0,0,1-3.955,1.2,14.59,14.59,0,0,1-4.024-1.2c-3.5-1.36-7.857-3.052-12.032-.787-3.148,1.709-5.427,5.384-6.937,11.2h-.8C23.953,21.051,25.616,15.944,28.651,12.382ZM16.5,47.893V35.925a2.786,2.786,0,0,1,2.783-2.783h4.638V50.676H19.285A2.786,2.786,0,0,1,16.5,47.893ZM7.259,88.242l21.8-9.276a20.636,20.636,0,0,0,4.676,10.452H5.934A2.776,2.776,0,0,1,7.259,88.242Zm53.989,1.176a20.636,20.636,0,0,0,4.676-10.452l21.8,9.276a2.78,2.78,0,0,1,1.325,1.176Zm0,0" fill="currentColor"/>
</svg>
