<svg xmlns="http://www.w3.org/2000/svg"  class="icon icon-accordion icon-fire" width="22.989" height="31.706" viewBox="0 0 22.989 31.706">
  <path id="Path_78041" data-name="Path 78041" d="M269.07,387.943c.041,2.748.46,5.294,2.666,7.277a1.389,1.389,0,0,0,.109-.3,1.1,1.1,0,0,0-.021-.352,13.8,13.8,0,0,1-.373-2.825,16.586,16.586,0,0,1,.755-6.825,13.99,13.99,0,0,1,6.151-7,.382.382,0,0,1,.089-.021c-.128.555-.287,1.094-.373,1.645a5.716,5.716,0,0,0,1.288,4.448,14.288,14.288,0,0,0,2.65,2.527c.86.676,1.754,1.319,2.568,2.047a11.4,11.4,0,0,1,3.835,6.468,16.846,16.846,0,0,1,.125,4.154,9.271,9.271,0,0,1-.94,3.736,11.64,11.64,0,0,1-8.6,6.5,10.8,10.8,0,0,1-9.357-2.725,11.126,11.126,0,0,1-3.893-7.23,14.3,14.3,0,0,1,2.675-10.745c.2-.268.432-.516.648-.773m9.457,9.125c-.043-.013-.084-.021-.127-.032-.064.128-.139.253-.194.387-.152.369-.268.757-.45,1.11a8.415,8.415,0,0,1-6.051,4.58,3.937,3.937,0,0,0-.462.157,8.319,8.319,0,0,0,9.387,2.1,8.477,8.477,0,0,0,5.114-8.881c-.491-3.169-3.062-6.193-5.806-6.764.289.585.576,1.119.821,1.67a10.024,10.024,0,0,1,.744,1.9,8.176,8.176,0,0,1-1.542,6.8,8.439,8.439,0,0,1-2.18,2.061A11.286,11.286,0,0,0,278.527,397.068Z" transform="translate(-265.616 -377.894)" fill="currentColor"/>
</svg>
