<svg xmlns="http://www.w3.org/2000/svg" class="icon icon-contact-mail" width="18.815" height="17.247" viewBox="0 0 18.815 17.247">
  <path id="envelope" d="M14.9,1H3.92A3.925,3.925,0,0,0,0,4.92v9.408a3.925,3.925,0,0,0,3.92,3.92H14.9a3.925,3.925,0,0,0,3.92-3.92V4.92A3.925,3.925,0,0,0,14.9,1ZM3.92,2.568H14.9a2.352,2.352,0,0,1,2.179,1.479l-6,6a2.357,2.357,0,0,1-3.327,0l-6-6A2.352,2.352,0,0,1,3.92,2.568ZM14.9,16.679H3.92a2.352,2.352,0,0,1-2.352-2.352V6.1L6.636,11.16a3.925,3.925,0,0,0,5.544,0L17.247,6.1v8.232A2.352,2.352,0,0,1,14.9,16.679Z" transform="translate(0 -1)" fill="currentColor"/>
</svg>
