<svg id="Group_37877"  class="icon icon-accordion icon-crab" data-name="Group 37877" xmlns="http://www.w3.org/2000/svg" xmlns:xlink="http://www.w3.org/1999/xlink" width="13.881" height="32.111" viewBox="0 0 13.881 32.111">
  <defs>
    <clipPath id="clip-path">
      <rect id="Rectangle_16850" data-name="Rectangle 16850" width="13.881" height="32.111" fill="currentColor"/>
    </clipPath>
  </defs>
  <g id="Group_37876" data-name="Group 37876" clip-path="url(#clip-path)">
    <path id="Path_78162" data-name="Path 78162" d="M5.718,4.792V7.04L.88,4.01A2.109,2.109,0,0,1,0,2.348V.1L4.79,3.033a2.012,2.012,0,0,1,.929,1.76" transform="translate(0 -0.051)" fill="currentColor"/>
    <path id="Path_78163" data-name="Path 78163" d="M22.318,0V2.248a1.974,1.974,0,0,1-.88,1.662L16.6,6.94V4.692a2.152,2.152,0,0,1,.978-1.711Z" transform="translate(-8.487)" fill="currentColor"/>
    <path id="Path_78164" data-name="Path 78164" d="M22.47,12.9v2.2a2.072,2.072,0,0,1-.929,1.76L16.8,19.84V17.592a2.058,2.058,0,0,1,.831-1.662Z" transform="translate(-8.589 -6.595)" fill="currentColor"/>
    <path id="Path_78165" data-name="Path 78165" d="M5.77,17.541v2.248L1.029,16.808A2.012,2.012,0,0,1,.1,15.048V12.8l4.839,3.079a2.06,2.06,0,0,1,.831,1.662" transform="translate(-0.051 -6.544)" fill="currentColor"/>
    <path id="Path_78166" data-name="Path 78166" d="M5.67,30.441v2.248L.684,29.561A2.33,2.33,0,0,1,0,27.948V25.7l4.741,2.981a2.012,2.012,0,0,1,.929,1.76" transform="translate(0 -13.139)" fill="currentColor"/>
    <path id="Path_78167" data-name="Path 78167" d="M22.37,27.848a1.858,1.858,0,0,1-.684,1.613L16.7,32.589V30.341a2.072,2.072,0,0,1,.929-1.76L22.37,25.6Z" transform="translate(-8.538 -13.088)" fill="currentColor"/>
    <path id="Path_78168" data-name="Path 78168" d="M22.418,38.6v2.248a2.072,2.072,0,0,1-.929,1.76l-4.741,2.981-.049-2.3a2,2,0,0,1,.733-1.564Z" transform="translate(-8.538 -19.734)" fill="currentColor"/>
    <path id="Path_78169" data-name="Path 78169" d="M5.77,43.241v2.248l-2.2-1.369L1.029,42.508A2.012,2.012,0,0,1,.1,40.748V38.5l4.936,3.177a2.157,2.157,0,0,1,.733,1.564" transform="translate(-0.051 -19.683)" fill="currentColor"/>
    <path id="Path_78170" data-name="Path 78170" d="M22.37,53.648a1.964,1.964,0,0,1-.929,1.76L16.7,58.389V56.141a2.072,2.072,0,0,1,.929-1.76L22.37,51.4Z" transform="translate(-8.538 -26.278)" fill="currentColor"/>
    <path id="Path_78171" data-name="Path 78171" d="M5.77,56.141v2.248L1.029,55.408A2.012,2.012,0,0,1,.1,53.648V51.4l4.741,2.981a2.012,2.012,0,0,1,.929,1.76" transform="translate(-0.051 -26.278)" fill="currentColor"/>
  </g>
</svg>
